<?xml version="1.0" encoding="iso-8859-1"?>
<!-- Generator: Adobe Illustrator 16.0.0, SVG Export Plug-In . SVG Version: 6.00 Build 0)  -->
<!DOCTYPE svg PUBLIC "-//W3C//DTD SVG 1.1//EN" "http://www.w3.org/Graphics/SVG/1.1/DTD/svg11.dtd">
<svg version="1.1" id="Capa_1" xmlns="http://www.w3.org/2000/svg" xmlns:xlink="http://www.w3.org/1999/xlink" x="0px" y="0px"
	 width="93.648px" height="93.648px" viewBox="0 0 93.648 93.648" style="enable-background:new 0 0 93.648 93.648;"
	 xml:space="preserve">
<g>
	<g>
		<path d="M44.661,57.38c2.519-0.432,5.175-1.447,7.229-2.761c1.279-0.817,3.217-2.432,3.785-3.149l0.436-0.551H41.024
			c-14.678,0-15.117-0.01-16.227-0.315c-0.628-0.175-1.472-0.484-1.877-0.689c-0.871-0.438-1.84-1.46-1.968-2.067
			c-0.286-1.354,0.289-2.575,0.962-3.842c1.858-3.169,5.979-7.031,10.341-9.69c1.817-1.107,5.332-2.81,7.341-3.554
			c2.835-1.05,5.53-1.737,9.099-2.321c1.948-0.319,2.66-0.335,18.337-0.418c8.971-0.048,16.626-0.164,16.626-0.164l0.066-7.028
			L64.34,20.887c-21.105,0.063-20.223,0.029-24.839,0.977c-9.911,2.034-21.873,8.654-29.697,16.435
			c-3.428,3.409-7.527,8.952-8.723,11.799C0.428,51.65,0.002,53.405,0,54.544c-0.001,0.811,0.052,0.955,0.556,1.514
			c0.543,0.601,1.538,1.089,2.859,1.401c0.306,0.072,9.4,0.14,20.21,0.148C40.596,57.617,43.467,57.587,44.661,57.38z"/>
		<path d="M93.094,37.594c-0.544-0.602-1.538-1.09-2.859-1.402c-0.306-0.073-9.4-0.139-20.21-0.148
			c-16.971-0.014-19.841,0.018-21.038,0.224c-2.515,0.433-5.172,1.448-7.227,2.762c-1.279,0.818-3.217,2.432-3.785,3.15
			l-0.436,0.549h15.087c14.677,0,15.117,0.01,16.227,0.317c0.628,0.174,1.473,0.484,1.877,0.688c0.87,0.44,1.839,1.46,1.969,2.069
			c0.285,1.354-0.289,2.575-0.964,3.842c-1.857,3.168-5.978,7.031-10.339,9.689c-1.819,1.107-5.332,2.811-7.341,3.553
			c-2.836,1.051-5.531,1.738-9.102,2.322c-1.946,0.318-2.658,0.336-18.335,0.418c-8.97,0.049-16.627,0.163-16.627,0.163
			l-0.066,7.028l19.384-0.059c21.106-0.062,20.223-0.027,24.84-0.976c9.909-2.035,21.873-8.653,29.697-16.437
			c3.428-3.407,7.525-8.951,8.723-11.797c0.652-1.552,1.079-3.307,1.08-4.447C93.65,38.297,93.597,38.151,93.094,37.594z"/>
	</g>
</g>
<g>
</g>
<g>
</g>
<g>
</g>
<g>
</g>
<g>
</g>
<g>
</g>
<g>
</g>
<g>
</g>
<g>
</g>
<g>
</g>
<g>
</g>
<g>
</g>
<g>
</g>
<g>
</g>
<g>
</g>
</svg>
